<?xml version="1.0" encoding="UTF-8"?>
<!-- Generator: visioncortex VTracer 0.6.3 -->
<svg version="1.1" xmlns="http://www.w3.org/2000/svg" width="256" height="256">
<path d="M0 0 C3.96 0 7.92 0 12 0 C11.48 6.24 10.67 11.97 9 18 C12.3 18 15.6 18 19 18 C19.19 16.05 19.19 16.05 19.38 14.06 C19.9 9.27 20.88 4.69 22 0 C25.96 0 29.92 0 34 0 C33.42 6.14 32.46 12.01 31 18 C31.98 17.97 32.96 17.93 33.96 17.89 C43.97 17.69 52.33 17.82 60 25 C60.7 24.66 61.4 24.32 62.12 23.98 C63.07 23.53 64.02 23.08 65 22.62 C66.39 21.96 66.39 21.96 67.81 21.29 C75.64 18.12 82.58 17.72 90.94 17.8 C92.06 17.81 93.18 17.81 94.33 17.81 C97.89 17.82 101.44 17.85 105 17.88 C107.42 17.89 109.84 17.89 112.26 17.9 C118.17 17.92 124.09 17.96 130 18 C128.68 24.27 127.36 30.54 126 37 C121.39 37.06 121.39 37.06 116.69 37.11 C113.69 37.16 110.69 37.21 107.7 37.26 C105.62 37.3 103.55 37.32 101.48 37.35 C98.49 37.38 95.5 37.43 92.5 37.49 C91.59 37.49 90.67 37.5 89.73 37.51 C81.16 37.7 73.77 39.41 67.44 45.41 C63.45 49.82 62.42 54.08 62.66 59.89 C63.21 63.3 64.38 64.78 67 67 C73.27 69.86 78.56 70.46 85.41 70.51 C86.85 70.54 86.85 70.54 88.33 70.57 C91.39 70.62 94.44 70.65 97.5 70.69 C99.58 70.72 101.67 70.76 103.75 70.79 C108.83 70.88 113.92 70.94 119 71 C118.71 72.85 118.42 74.71 118.12 76.56 C117.88 78.11 117.88 78.11 117.63 79.69 C116.96 83.22 116.03 86.56 115 90 C108.4 90.1 101.8 90.17 95.21 90.22 C92.97 90.24 90.73 90.27 88.49 90.3 C60.16 90.73 60.16 90.73 50 83 C47.03 83.1 45.32 84.4 42.75 85.94 C34.28 90.83 25.45 90.22 16 90 C15.34 93.96 14.68 97.92 14 102 C10.04 102 6.08 102 2 102 C2.88 92.25 2.88 92.25 4 90 C0.7 90 -2.6 90 -6 90 C-6.14 91.42 -6.29 92.85 -6.44 94.31 C-6.72 97.11 -7.1 99.31 -8 102 C-11.96 102 -15.92 102 -20 102 C-19.13 93.38 -19.13 93.38 -18 90 C-27.57 90 -37.14 90 -47 90 C-45.86 80.85 -45.86 80.85 -45 76.56 C-44.84 75.72 -44.67 74.87 -44.5 74 C-44 72 -44 72 -43 71 C-40.33 70.86 -37.68 70.96 -35 71 C-35.94 67.71 -36.87 64.42 -37.81 61.12 C-38.07 60.21 -38.33 59.29 -38.6 58.34 C-38.86 57.43 -39.13 56.51 -39.39 55.57 C-39.63 54.74 -39.87 53.92 -40.11 53.06 C-41.38 48.7 -42.69 44.35 -44 40 C-53.9 54.85 -53.9 54.85 -64 70 C-61.69 70.33 -59.38 70.66 -57 71 C-57.48 73.6 -57.96 76.21 -58.44 78.81 C-58.57 79.55 -58.71 80.29 -58.85 81.05 C-59.41 84.11 -60.01 87.04 -61 90 C-74.53 90 -88.06 90 -102 90 C-96.38 79.88 -96.38 79.88 -93.98 76.35 C-93.44 75.55 -92.9 74.76 -92.35 73.94 C-91.78 73.11 -91.21 72.27 -90.62 71.42 C-90.02 70.52 -89.41 69.63 -88.79 68.71 C-86.86 65.87 -84.93 63.03 -83 60.19 C-81.11 57.4 -79.21 54.61 -77.32 51.82 C-76.07 49.97 -74.81 48.13 -73.54 46.29 C-70.39 41.68 -67.41 37.06 -64.67 32.2 C-57.02 18.89 -57.02 18.89 -51.45 16.44 C-47.66 16.03 -44.46 16.21 -40.69 16.75 C-39.46 16.84 -38.23 16.93 -36.96 17.02 C-33.95 17.26 -30.99 17.58 -28 18 C-25.86 23.43 -24.2 28.76 -22.88 34.44 C-22.14 39.09 -22.14 39.09 -20 43 C-18.35 34.75 -16.7 26.5 -15 18 C-11.04 18 -7.08 18 -3 18 C-2.87 17.12 -2.73 16.24 -2.6 15.33 C-2.42 14.17 -2.24 13.01 -2.06 11.81 C-1.89 10.66 -1.71 9.52 -1.54 8.33 C-1.09 5.54 -0.55 2.77 0 0 Z M5 37 C4.34 39.97 3.68 42.94 3 46 C7.04 46.07 11.08 46.13 15.12 46.16 C16.49 46.18 17.86 46.2 19.23 46.23 C21.21 46.26 23.19 46.28 25.17 46.29 C26.36 46.31 27.55 46.32 28.77 46.34 C32.28 45.97 34.16 45.03 37 43 C36.66 40.53 36.66 40.53 36 38 C33.13 36.56 30.66 36.89 27.46 36.9 C25.51 36.91 25.51 36.91 23.52 36.91 C22.14 36.92 20.76 36.93 19.38 36.94 C17.99 36.94 16.6 36.95 15.21 36.95 C11.81 36.96 8.4 36.98 5 37 Z M0 62 C-0.66 64.97 -1.32 67.94 -2 71 C2.04 71.07 6.08 71.13 10.12 71.16 C11.49 71.18 12.86 71.2 14.23 71.23 C16.21 71.26 18.19 71.28 20.17 71.29 C21.36 71.31 22.55 71.32 23.77 71.34 C27.32 70.97 29.18 70.15 32 68 C32.88 65.91 32.88 65.91 33 64 C29.32 61.55 27.53 61.77 23.14 61.8 C22.15 61.81 22.15 61.81 21.14 61.81 C19.03 61.82 16.92 61.85 14.81 61.88 C13.38 61.89 11.95 61.89 10.52 61.9 C7.01 61.92 3.51 61.96 0 62 Z " fill="#F29D03" transform="translate(112,76)"/>
<path d="M0 0 C9.33 0 18.67 0 28 0 C28 0.99 28 1.98 28 3 C29.65 3 31.3 3 33 3 C32.67 4.65 32.34 6.3 32 8 C30.35 8.33 28.7 8.66 27 9 C29.31 9.33 31.62 9.66 34 10 C34.08 9.4 34.16 8.8 34.25 8.19 C35.25 5.28 36.37 4.56 39 3 C41.81 2.64 41.81 2.64 45.01 2.67 C46.73 2.68 46.73 2.68 48.5 2.69 C50.29 2.72 50.29 2.72 52.12 2.75 C53.33 2.76 54.54 2.76 55.78 2.77 C64.69 2.85 64.69 2.85 67 4 C67.66 2.68 68.32 1.36 69 0 C70.32 0 71.64 0 73 0 C73 1.65 73 3.3 73 5 C73.99 4.34 74.98 3.68 76 3 C78.16 2.7 78.16 2.7 80.5 2.69 C81.27 2.67 82.05 2.65 82.84 2.64 C85 3 85 3 86.8 4.26 C88.97 7.4 87.65 10.39 87 14 C85.35 14 83.7 14 82 14 C82.33 12.02 82.66 10.04 83 8 C80.69 8.33 78.38 8.66 76 9 C75.34 10.65 74.68 12.3 74 14 C48.33 14 22.67 14 -3 14 C-2.01 9.38 -1.02 4.76 0 0 Z M3 4 C3 4.33 3 4.66 3 5 C6.96 5 10.92 5 15 5 C15 4.67 15 4.34 15 4 C11.04 4 7.08 4 3 4 Z M39 8 C39 8.66 39 9.32 39 10 C42.63 10 46.26 10 50 10 C50 9.34 50 8.68 50 8 C46.37 8 42.74 8 39 8 Z M54 8 C54 8.66 54 9.32 54 10 C56.97 10 59.94 10 63 10 C63 9.34 63 8.68 63 8 C60.03 8 57.06 8 54 8 Z M2 9 C2 9.33 2 9.66 2 10 C5.96 10 9.92 10 14 10 C14 9.67 14 9.34 14 9 C10.04 9 6.08 9 2 9 Z " fill="#000000" transform="translate(156,76)"/>
</svg>
