<svg version="1.2" xmlns="http://www.w3.org/2000/svg" viewBox="0 0 1024 1024" width="500" height="500">
	<title>New Project</title>
	<style>
		.s0 { fill: #493726 } 
		.s1 { fill: #331a0f } 
		.s2 { fill: #f18100 } 
		.s3 { fill: #ffffff } 
		.s4 { fill: none;stroke: #ffffff;stroke-linecap: round;stroke-linejoin: round;stroke-width: 8.3 } 
		.s5 { fill: #f6bfa4 } 
		.s6 { fill: none;stroke: #331a0f;stroke-linecap: round;stroke-linejoin: round;stroke-width: 8.3 } 
		.s7 { fill: #000000 } 
	</style>
	<g id="Doge">
		<path id="Layer 2" class="s0" d=""/>
		<path id="Shape 1" class="s1" d="m512 870.6c-165.9 0-300-140.4-300-314.1 0-173.7 134.1-314.1 300-314.1 165.9 0 300 140.4 300 314.1 0 173.7-134.1 314.1-300 314.1z"/>
		<path id="Layer 3 copy" class="s1" d="m251.3 423c0 0-37.7-48.9-13.2-175.6 19.8-102.8 60.4-106.6 60.4-106.6 0 0 30.3-4.3 72 30.3 17.2 14.1 51.1 54.6 70.3 71.6 10.3 9.1 26.3 4.6 26.3 4.6z"/>
		<path id="Layer 3 copy 2" class="s1" d="m769.2 423c0 0 37.7-48.9 13.2-175.6-19.8-102.8-60.5-106.6-60.5-106.6 0 0-30.2-4.3-72 30.3-17.1 14.1-51 54.6-70.2 71.6-10.3 9.1-26.4 4.6-26.4 4.6z"/>
		<path id="Shape 1 copy" class="s2" d="m512 840.7c-150.1 0-271.5-127-271.5-284.2 0-157.2 121.4-284.3 271.5-284.3 150.1 0 271.5 127.1 271.5 284.3 0 157.2-121.4 284.2-271.5 284.2z"/>
		<path id="Layer 3" class="s2" d="m513 272.9l76.1 4.1c0 0 9.8-27.2 53.8-66.3 25.1-22.3 51.4-47.5 71.2-39.8 14.9 5.9 24.8 33.1 35.6 79.6 25.1 108.2-2.1 155.2-2.1 155.2l15.4 62.6z"/>
		<path id="Layer 3 copy 3" class="s2" d="m500.7 272.9l-76.1 4.1c0 0-9.8-27.2-53.8-66.3-25-22.3-51.3-47.5-71.2-39.8-14.9 5.9-24.8 33.1-35.6 79.6-25.1 108.2 2.2 155.2 2.2 155.2l-11.3 63.8z"/>
		<path id="Layer 4" class="s3" d="m515.1 472.6c0 0 22.1 0.9 43.2 8 28.1 9.3 33.9 27.5 66.1 27.5 24.2 0 62-45.8 75.3-45.3 13.4 0.4 71.7 0.4 81 72.5 9.5 73.3-78 107.4-78 107.4 0 0 20.9 12.2 17.6 41.2-3.4 30.2-29.9 79-49.4 102.7-44.5 54-153.9 56.3-153.9 56.3"/>
		<path id="Layer 4 copy" class="s3" d="m516.8 472.6c0 0-24.1 0.9-45.3 8-28 9.3-33.8 27.5-66 27.5-24.2 0-62-45.8-75.3-45.3-13.4 0.4-71.7 0.4-81 72.5-9.6 73.3 78 107.4 78 107.4 0 0-20.9 12.2-17.6 41.2 3.4 30.2 32.6 77.1 49.4 102.7 35 53.4 158.5 56.3 158.5 56.3l16.5-2.9 37.7-313.4z"/>
		<path id="Layer 5" class="s3" d="m435 426.1c-19.9 0-36.1-14.4-36.1-32.2 0-17.8 16.2-32.2 36.1-32.2 20 0 36.2 14.4 36.2 32.2 0 17.8-16.2 32.2-36.2 32.2z"/>
		<path id="Layer 5 copy" class="s3" d="m585.8 426.1c-20 0-36.1-14.4-36.1-32.2 0-17.8 16.1-32.2 36.1-32.2 20 0 36.1 14.4 36.1 32.2 0 17.8-16.1 32.2-36.1 32.2z"/>
		<g id="eyes">
			<path id="Shape 2" class="s1" d="m409.9 488.9c-19.1 0-43-21.9-43-32.8 0-10.3 23.9-36.3 43-36.3 19.1 0 34.6 15.5 34.6 34.6 0 19.1-15.5 34.5-34.6 34.5z"/>
			<path id="Shape 2 copy" class="s1" d="m613.5 488.9c19.1 0 43-21.9 43-32.8 0-10.3-23.9-36.3-43-36.3-19.1 0-34.5 15.5-34.5 34.6 0 19.1 15.4 34.5 34.5 34.5z"/>
			<path id="Layer 8" class="s3" d="m402.1 456c-6.1 0-11-4.9-11-11 0-6.1 4.9-11 11-11 6 0 11 4.9 11 11 0 6.1-5 11-11 11z"/>
			<path id="Layer 8 copy" class="s3" d="m617.2 456c-6.1 0-11-4.9-11-11 0-6.1 4.9-11 11-11 6.1 0 11 4.9 11 11 0 6.1-4.9 11-11 11z"/>
		</g>
		<path id="Shape 3" class="s1" d="m494.8 519.2c0 0 9.3-1.3 16.9-1.3 7.7 0 17.5 1.3 17.5 1.3 20.6 0 36.5 16.8 36.5 37.4 0 20.7-29.9 36.3-36.5 36.3 0 0-8.8 2.1-17.3 2.1-8.4 0-17.1-2.1-17.1-2.1-8.5 0-36.5-15.6-36.5-36.3 0-20.6 15.9-37.4 36.5-37.4z"/>
		<path id="Shape 4" class="s1" d="m513.6 588c0 0 17.7 32.3 60.8 32.3 28.9 0 56.1-32.3 56.1-32.3 0 0 48.2-3.6-35.9 90.3-19.5 21.8-8.2 38.6-18.7 50.6-10.4 11.8-39.1 21.6-66.6 21-25.3-0.6-49.7-10.7-57-18.9-15.3-17.2 2.1-26.1-24.5-53.7-77.3-80.2-40.4-90.8-40.4-90.8 5.3 0.4 35.7 29.4 63.4 31.8 46 3.9 62.8-30.3 62.8-30.3z"/>
		<path id="Shape 7" class="s4" d="m466.5 696.3c0 0 9.5 19.5 46.6 19.5 37.1 0 45.4-19.5 45.4-19.5"/>
		<path id="Layer 7" class="s5" d="m507.3 633.6c0 0-46.4 7.6-48.7 12.6-2.2 4.9 4.5 58.1 53.4 58.1 48.9 0 55.9-51.4 55-56.6-1-5.2-51.9-14.1-51.9-14.1l-4 45.5z"/>
		<path id="Shape 8" class="s4" d="m486.9 544.1c0 0 10.8-8.1 24-8.1 13.1 0 26.1 8.1 26.1 8.1"/>
		<path id="Layer 6" class="s3" d="m636.3 287c0 0-2.5-33.1 18.3-56.6 10.7-12 34.6-38.9 52.2-35.6 16.7 3.2 27.3 35.7 30.3 54.7 16.2 101.4-14.6 107.9-16.3 106.1-51.6-51.7-81.9-64.1-84.5-68.6z"/>
		<path id="Layer 6 copy" class="s3" d="m383.7 287c0 0 2.5-33.1-18.4-56.6-10.7-12-34.5-38.9-52.1-35.6-16.7 3.2-27.4 35.7-30.4 54.7-16.1 101.4 14.6 107.9 16.4 106.1 51.6-51.7 81.9-64.1 84.5-68.6z"/>
		<g id="strokes">
			<path id="Shape 5" class="s6" d="m686.3 319.3c0 0 26.6 20.7 29.2 29.9"/>
			<path id="Shape 5 copy" class="s6" d="m336.1 319.3c0 0-27.3 20-29.8 29.3"/>
			<path id="Shape 6" class="s6" d="m653.3 302.1c0 0 5.6-19.3 14.2-25.2"/>
			<path id="Shape 6 copy" class="s6" d="m368.3 302.1c0 0-5.5-19.3-14.1-25.2"/>
		</g>
	</g>
	<g id="Sunglasses">
		<g id="Folder 4">
			<path id="Shape 9" class="s7" d="m491.7 443.8h38.4v21l-38.4 0.4v39.7h-25.7v16.9h-16.1l0.1 19.7h-140.6v-20.1h-19.9v-19l-20.8-0.3-0.4-18.2-20.2-0.4v-39.7z"/>
			<path id="Shape 9 copy" class="s7" d="m530.8 443.8h-38.5v21l38.5 0.4v39.7h25.6v16.9h16.1v19.7h140.6v-20.1h19.9v-19l20.7-0.3 0.5-18.2 20.1-0.4v-39.7z"/>
		</g>
		<g id="highlights_L">
			<g id="Folder 2">
				<path id="Layer 9 copy" class="s3" d="m307.1 463.4v19.7h-20.5v-19.7z"/>
				<path id="Layer 9 copy 2" class="s3" d="m327.6 483.1v19.7h-20.5v-19.7z"/>
				<path id="Layer 9 copy 3" class="s3" d="m348.1 502.8v19.8h-20.5v-19.8z"/>
			</g>
			<g id="Folder 2 copy">
				<path id="Layer 9 copy" class="s3" d="m348.1 463.4v19.7h-20.5v-19.7z"/>
				<path id="Layer 9 copy 2" class="s3" d="m368.6 483.1v19.7h-20.5v-19.7z"/>
				<path id="Layer 9 copy 3" class="s3" d="m389.1 502.8v19.8h-20.5v-19.8z"/>
			</g>
		</g>
		<g id="highlights">
			<g id="Folder 2">
				<path id="Layer 9 copy" class="s3" d="m592.9 463.4v19.5h-20.5v-19.5z"/>
				<path id="Layer 9 copy 2" class="s3" d="m613.4 482.9v19.5h-20.5v-19.5z"/>
				<path id="Layer 9 copy 3" class="s3" d="m633.9 502.4v19.6h-20.5v-19.6z"/>
			</g>
			<g id="Folder 2 copy">
				<path id="Layer 9 copy" class="s3" d="m633.9 463.4v19.5h-20.5v-19.5z"/>
				<path id="Layer 9 copy 2" class="s3" d="m654.5 482.9v19.5h-20.6v-19.5z"/>
				<path id="Layer 9 copy 3" class="s3" d="m675 502.4v19.6h-20.5v-19.6z"/>
			</g>
		</g>
	</g>
</svg>